<?xml version="1.0" encoding="UTF-8" standalone="no"?>
<svg
   xmlns:dc="http://purl.org/dc/elements/1.1/"
   xmlns:cc="http://creativecommons.org/ns#"
   xmlns:rdf="http://www.w3.org/1999/02/22-rdf-syntax-ns#"
   xmlns:svg="http://www.w3.org/2000/svg"
   xmlns="http://www.w3.org/2000/svg"
   xmlns:xlink="http://www.w3.org/1999/xlink"
   xmlns:sodipodi="http://sodipodi.sourceforge.net/DTD/sodipodi-0.dtd"
   xmlns:inkscape="http://www.inkscape.org/namespaces/inkscape"
   sodipodi:docname="logo1.svg"
   inkscape:version="1.0 (4035a4fb49, 2020-05-01)"
   id="svg8"
   version="1.1"
   viewBox="0 0 350 120"
   height="120mm"
   width="350mm">
  <defs
     id="defs2">
    <linearGradient
       id="linearGradient905"
       inkscape:collect="always">
      <stop
         id="stop901"
         offset="0"
         style="stop-color:#81b29a;stop-opacity:1;" />
      <stop
         id="stop903"
         offset="1"
         style="stop-color:#f2cc8f;stop-opacity:1" />
    </linearGradient>
    <linearGradient
       id="linearGradient897"
       inkscape:collect="always">
      <stop
         id="stop893"
         offset="0"
         style="stop-color:#e07a5f;stop-opacity:1;" />
      <stop
         id="stop895"
         offset="1"
         style="stop-color:#3d405b;stop-opacity:1" />
    </linearGradient>
    <linearGradient
       gradientTransform="matrix(0.26458333,0,0,0.26458333,-49.391408,-5.2384827)"
       gradientUnits="userSpaceOnUse"
       y2="359.67871"
       x2="665"
       y1="359.67871"
       x1="402.5"
       id="linearGradient899"
       xlink:href="#linearGradient897"
       inkscape:collect="always" />
    <linearGradient
       gradientTransform="matrix(0.26458333,0,0,0.26458333,-49.391408,-5.2384827)"
       gradientUnits="userSpaceOnUse"
       y2="424"
       x2="665"
       y1="424"
       x1="365"
       id="linearGradient907"
       xlink:href="#linearGradient905"
       inkscape:collect="always" />
  </defs>
  <sodipodi:namedview
     inkscape:window-maximized="1"
     inkscape:window-y="-8"
     inkscape:window-x="-8"
     inkscape:window-height="702"
     inkscape:window-width="1366"
     showgrid="false"
     inkscape:document-rotation="0"
     inkscape:current-layer="layer1"
     inkscape:document-units="mm"
     inkscape:cy="560"
     inkscape:cx="400"
     inkscape:zoom="0.33361702"
     inkscape:pageshadow="2"
     inkscape:pageopacity="0.0"
     borderopacity="1.0"
     bordercolor="#666666"
     pagecolor="#ffffff"
     id="base" />
  <metadata
     id="metadata5">
    <rdf:RDF>
      <cc:Work
         rdf:about="">
        <dc:format>image/svg+xml</dc:format>
        <dc:type
           rdf:resource="http://purl.org/dc/dcmitype/StillImage" />
        <dc:title></dc:title>
      </cc:Work>
    </rdf:RDF>
  </metadata>
  <g
     id="layer1"
     inkscape:groupmode="layer"
     inkscape:label="Layer 1">
    <g
       transform="translate(-43.471213,-29.926504)"
       id="layer1-5"
       inkscape:label="Layer 1">
      <path
         d="M 86.869006,67.257349 A 39.687499,39.687499 0 0 0 47.181507,106.94485 39.687499,39.687499 0 0 0 86.869006,146.63234 39.687499,39.687499 0 0 0 126.55651,106.94485 39.687499,39.687499 0 0 0 86.869006,67.257349 Z m 0,19.84375 A 19.84375,19.84375 0 0 1 106.71276,106.94485 19.84375,19.84375 0 0 1 86.869006,126.78859 19.84375,19.84375 0 0 1 67.025257,106.94485 19.84375,19.84375 0 0 1 86.869006,87.101099 Z"
         style="fill:url(#linearGradient907);fill-opacity:1;fill-rule:evenodd;stroke-width:0.374409"
         id="path833" />
      <path
         d="m 126.55651,33.220667 c -10.99344,0 -19.84375,12.108238 -19.84375,27.148732 v 46.575451 a 19.843749,19.843749 0 0 1 -19.843754,19.84374 19.843749,19.843749 0 0 1 -19.843749,-19.84374 19.843749,19.843749 0 0 1 19.694405,-19.843235 29.765619,29.765619 0 0 0 -29.61628,29.765115 29.765619,29.765619 0 0 0 29.765624,29.76561 29.765619,29.765619 0 0 0 0.236162,-0.001 39.687499,39.687499 0 0 0 39.451342,-39.68646 39.687499,39.687499 0 0 0 -0.20671,-4.04316 l 0.20671,-0.0424 z"
         style="fill:url(#linearGradient899);fill-opacity:1;fill-rule:evenodd;stroke-width:0.280808"
         id="path838" />
      <g
         style="font-size:31.75px;line-height:1.25;font-family:Montserrat;-inkscape-font-specification:Montserrat;stroke-width:0.264583"
         id="text911"
         aria-label="designyourself">
        <path
           id="path867"
           style="font-style:normal;font-variant:normal;font-weight:bold;font-stretch:normal;font-size:31.75px;font-family:Montserrat;-inkscape-font-specification:'Montserrat Bold';fill:#3d405b;fill-opacity:1;stroke-width:0.264583"
           d="M 162.62075,81.959513 V 105.51801 H 157.89 v -1.9685 q -1.8415,2.2225 -5.334,2.2225 -2.413,0 -4.3815,-1.0795 -1.93675,-1.0795 -3.048,-3.07975 -1.11125,-2.000247 -1.11125,-4.635497 0,-2.63525 1.11125,-4.6355 1.11125,-2.00025 3.048,-3.07975 1.9685,-1.0795 4.3815,-1.0795 3.27025,0 5.11175,2.06375 v -8.28675 z m -9.2075,19.748497 q 1.87325,0 3.1115,-1.27 1.23825,-1.301747 1.23825,-3.460747 0,-2.159 -1.23825,-3.429 -1.23825,-1.30175 -3.1115,-1.30175 -1.905,0 -3.14325,1.30175 -1.23825,1.27 -1.23825,3.429 0,2.159 1.23825,3.460747 1.23825,1.27 3.14325,1.27 z" />
        <path
           id="path869"
           style="font-style:normal;font-variant:normal;font-weight:bold;font-stretch:normal;font-size:31.75px;font-family:Montserrat;-inkscape-font-specification:'Montserrat Bold';fill:#3d405b;fill-opacity:1;stroke-width:0.264583"
           d="m 183.90614,97.040763 q 0,0.09525 -0.0952,1.3335 h -12.92225 q 0.34925,1.5875 1.651,2.508247 1.30175,0.92075 3.2385,0.92075 1.3335,0 2.3495,-0.381 1.04775,-0.41275 1.93675,-1.27 l 2.63525,2.8575 q -2.413,2.76225 -7.0485,2.76225 -2.88925,0 -5.11175,-1.11125 -2.2225,-1.143 -3.429,-3.14325 -1.2065,-2.000247 -1.2065,-4.540247 0,-2.50825 1.17475,-4.5085 1.2065,-2.032 3.27025,-3.14325 2.0955,-1.143 4.66725,-1.143 2.50825,0 4.54025,1.0795 2.032,1.0795 3.175,3.1115 1.17475,2.00025 1.17475,4.66725 z m -8.85825,-5.11175 q -1.68275,0 -2.82575,0.9525 -1.143,0.9525 -1.397,2.6035 h 8.41375 q -0.254,-1.61925 -1.397,-2.57175 -1.143,-0.98425 -2.794,-0.98425 z" />
        <path
           id="path871"
           style="font-style:normal;font-variant:normal;font-weight:bold;font-stretch:normal;font-size:31.75px;font-family:Montserrat;-inkscape-font-specification:'Montserrat Bold';fill:#3d405b;fill-opacity:1;stroke-width:0.264583"
           d="m 192.95043,105.77201 q -2.12725,0 -4.15925,-0.508 -2.032,-0.53975 -3.2385,-1.3335 l 1.651,-3.556 q 1.143,0.73025 2.76225,1.2065 1.61925,0.4445 3.175,0.4445 3.14325,0 3.14325,-1.55575 0,-0.730247 -0.85725,-1.047747 -0.85725,-0.3175 -2.63525,-0.53975 -2.0955,-0.3175 -3.46075,-0.73025 -1.36525,-0.41275 -2.38125,-1.4605 -0.98425,-1.04775 -0.98425,-2.9845 0,-1.61925 0.92075,-2.8575 0.9525,-1.27 2.7305,-1.9685 1.80975,-0.6985 4.2545,-0.6985 1.80975,0 3.58775,0.41275 1.80975,0.381 2.9845,1.0795 l -1.651,3.52425 q -2.25425,-1.27 -4.92125,-1.27 -1.5875,0 -2.38125,0.4445 -0.79375,0.4445 -0.79375,1.143 0,0.79375 0.85725,1.11125 0.85725,0.3175 2.7305,0.60325 2.0955,0.34925 3.429,0.762 1.3335,0.381 2.31775,1.42875 0.98425,1.04775 0.98425,2.920997 0,1.5875 -0.9525,2.82575 -0.9525,1.23825 -2.794,1.93675 -1.80975,0.66675 -4.318,0.66675 z" />
        <path
           id="path873"
           style="font-style:normal;font-variant:normal;font-weight:bold;font-stretch:normal;font-size:31.75px;font-family:Montserrat;-inkscape-font-specification:'Montserrat Bold';fill:#3d405b;fill-opacity:1;stroke-width:0.264583"
           d="m 204.07087,88.436513 h 4.953 v 17.081497 h -4.953 z m 2.4765,-2.38125 q -1.36525,0 -2.2225,-0.79375 -0.85725,-0.79375 -0.85725,-1.9685 0,-1.17475 0.85725,-1.9685 0.85725,-0.79375 2.2225,-0.79375 1.36525,0 2.2225,0.762 0.85725,0.762 0.85725,1.905 0,1.23825 -0.85725,2.06375 -0.85725,0.79375 -2.2225,0.79375 z" />
        <path
           id="path875"
           style="font-style:normal;font-variant:normal;font-weight:bold;font-stretch:normal;font-size:31.75px;font-family:Montserrat;-inkscape-font-specification:'Montserrat Bold';fill:#3d405b;fill-opacity:1;stroke-width:0.264583"
           d="m 231.24192,88.436513 v 14.223997 q 0,4.699 -2.44475,6.985 -2.44475,2.286 -7.14375,2.286 -2.4765,0 -4.699,-0.60325 -2.2225,-0.60325 -3.683,-1.74625 l 1.9685,-3.556 q 1.0795,0.889 2.7305,1.397 1.651,0.53975 3.302,0.53975 2.57175,0 3.77825,-1.17475 1.23825,-1.143 1.23825,-3.4925 v -0.73025 q -1.93675,2.12725 -5.3975,2.12725 -2.3495,0 -4.318,-1.016 -1.93675,-1.04775 -3.07975,-2.921 -1.143,-1.873247 -1.143,-4.317997 0,-2.44475 1.143,-4.318 1.143,-1.87325 3.07975,-2.88925 1.9685,-1.04775 4.318,-1.04775 3.71475,0 5.6515,2.44475 v -2.19075 z m -9.36625,12.191997 q 1.9685,0 3.20675,-1.142997 1.27,-1.17475 1.27,-3.048 0,-1.87325 -1.27,-3.01625 -1.23825,-1.17475 -3.20675,-1.17475 -1.9685,0 -3.2385,1.17475 -1.27,1.143 -1.27,3.01625 0,1.87325 1.27,3.048 1.27,1.142997 3.2385,1.142997 z" />
        <path
           id="path877"
           style="font-style:normal;font-variant:normal;font-weight:bold;font-stretch:normal;font-size:31.75px;font-family:Montserrat;-inkscape-font-specification:'Montserrat Bold';fill:#3d405b;fill-opacity:1;stroke-width:0.264583"
           d="m 246.20312,88.182513 q 3.175,0 5.11175,1.905 1.9685,1.905 1.9685,5.6515 v 9.778997 h -4.953 v -9.016997 q 0,-2.032 -0.889,-3.01625 -0.889,-1.016 -2.57175,-1.016 -1.87325,0 -2.9845,1.17475 -1.11125,1.143 -1.11125,3.429 v 8.445497 h -4.953 V 88.436513 h 4.73075 v 2.00025 q 0.98425,-1.0795 2.44475,-1.651 1.4605,-0.60325 3.20675,-0.60325 z" />
        <path
           id="path879"
           style="font-style:normal;font-variant:normal;font-weight:bold;font-stretch:normal;font-size:31.75px;font-family:Montserrat;-inkscape-font-specification:'Montserrat Bold';fill:#3d405b;fill-opacity:1;stroke-width:0.264583"
           d="m 274.41746,88.436513 -7.71525,18.129247 q -1.17475,2.95275 -2.921,4.15925 -1.7145,1.2065 -4.15925,1.2065 -1.3335,0 -2.63525,-0.41275 -1.30175,-0.41275 -2.12725,-1.143 l 1.80975,-3.52425 q 0.5715,0.508 1.30175,0.79375 0.762,0.28575 1.49225,0.28575 1.016,0 1.651,-0.508 0.635,-0.47625 1.143,-1.61925 l 0.0635,-0.15875 -7.39775,-17.208497 h 5.11175 l 4.79425,11.588747 4.826,-11.588747 z" />
        <path
           id="path881"
           style="font-style:normal;font-variant:normal;font-weight:bold;font-stretch:normal;font-size:31.75px;font-family:Montserrat;-inkscape-font-specification:'Montserrat Bold';fill:#3d405b;fill-opacity:1;stroke-width:0.264583"
           d="m 284.07045,105.77201 q -2.69875,0 -4.85775,-1.11125 -2.12725,-1.143 -3.33375,-3.14325 -1.2065,-2.000247 -1.2065,-4.540247 0,-2.54 1.2065,-4.54025 1.2065,-2.00025 3.33375,-3.1115 2.159,-1.143 4.85775,-1.143 2.69875,0 4.826,1.143 2.12725,1.11125 3.33375,3.1115 1.2065,2.00025 1.2065,4.54025 0,2.54 -1.2065,4.540247 -1.2065,2.00025 -3.33375,3.14325 -2.12725,1.11125 -4.826,1.11125 z m 0,-4.064 q 1.905,0 3.1115,-1.27 1.23825,-1.301747 1.23825,-3.460747 0,-2.159 -1.23825,-3.429 -1.2065,-1.30175 -3.1115,-1.30175 -1.905,0 -3.14325,1.30175 -1.23825,1.27 -1.23825,3.429 0,2.159 1.23825,3.460747 1.23825,1.27 3.14325,1.27 z" />
        <path
           id="path883"
           style="font-style:normal;font-variant:normal;font-weight:bold;font-stretch:normal;font-size:31.75px;font-family:Montserrat;-inkscape-font-specification:'Montserrat Bold';fill:#3d405b;fill-opacity:1;stroke-width:0.264583"
           d="m 313.92487,88.436513 v 17.081497 h -4.699 v -2.032 q -0.98425,1.11125 -2.3495,1.7145 -1.36525,0.5715 -2.95275,0.5715 -3.3655,0 -5.334,-1.93675 -1.9685,-1.93675 -1.9685,-5.746747 v -9.652 h 4.953 v 8.92175 q 0,4.127497 3.46075,4.127497 1.778,0 2.8575,-1.143 1.0795,-1.174747 1.0795,-3.460747 v -8.4455 z" />
        <path
           id="path885"
           style="font-style:normal;font-variant:normal;font-weight:bold;font-stretch:normal;font-size:31.75px;font-family:Montserrat;-inkscape-font-specification:'Montserrat Bold';fill:#3d405b;fill-opacity:1;stroke-width:0.264583"
           d="m 323.27525,90.690763 q 0.889,-1.23825 2.38125,-1.87325 1.524,-0.635 3.4925,-0.635 v 4.572 q -0.8255,-0.0635 -1.11125,-0.0635 -2.12725,0 -3.33375,1.2065 -1.2065,1.17475 -1.2065,3.556 v 8.064497 h -4.953 V 88.436513 h 4.73075 z" />
        <path
           id="path887"
           style="font-style:normal;font-variant:normal;font-weight:bold;font-stretch:normal;font-size:31.75px;font-family:Montserrat;-inkscape-font-specification:'Montserrat Bold';fill:#3d405b;fill-opacity:1;stroke-width:0.264583"
           d="m 337.93383,105.77201 q -2.12725,0 -4.15925,-0.508 -2.032,-0.53975 -3.2385,-1.3335 l 1.651,-3.556 q 1.143,0.73025 2.76225,1.2065 1.61925,0.4445 3.175,0.4445 3.14325,0 3.14325,-1.55575 0,-0.730247 -0.85725,-1.047747 -0.85725,-0.3175 -2.63525,-0.53975 -2.0955,-0.3175 -3.46075,-0.73025 -1.36525,-0.41275 -2.38125,-1.4605 -0.98425,-1.04775 -0.98425,-2.9845 0,-1.61925 0.92075,-2.8575 0.9525,-1.27 2.7305,-1.9685 1.80975,-0.6985 4.2545,-0.6985 1.80975,0 3.58775,0.41275 1.80975,0.381 2.9845,1.0795 l -1.651,3.52425 q -2.25425,-1.27 -4.92125,-1.27 -1.5875,0 -2.38125,0.4445 -0.79375,0.4445 -0.79375,1.143 0,0.79375 0.85725,1.11125 0.85725,0.3175 2.7305,0.60325 2.0955,0.34925 3.429,0.762 1.3335,0.381 2.31775,1.42875 0.98425,1.04775 0.98425,2.920997 0,1.5875 -0.9525,2.82575 -0.9525,1.23825 -2.794,1.93675 -1.80975,0.66675 -4.318,0.66675 z" />
        <path
           id="path889"
           style="font-style:normal;font-variant:normal;font-weight:bold;font-stretch:normal;font-size:31.75px;font-family:Montserrat;-inkscape-font-specification:'Montserrat Bold';fill:#3d405b;fill-opacity:1;stroke-width:0.264583"
           d="m 365.78651,97.040763 q 0,0.09525 -0.0953,1.3335 h -12.92225 q 0.34925,1.5875 1.651,2.508247 1.30175,0.92075 3.2385,0.92075 1.3335,0 2.3495,-0.381 1.04775,-0.41275 1.93675,-1.27 l 2.63525,2.8575 q -2.413,2.76225 -7.0485,2.76225 -2.88925,0 -5.11175,-1.11125 -2.2225,-1.143 -3.429,-3.14325 -1.2065,-2.000247 -1.2065,-4.540247 0,-2.50825 1.17475,-4.5085 1.2065,-2.032 3.27025,-3.14325 2.0955,-1.143 4.66725,-1.143 2.50825,0 4.54025,1.0795 2.032,1.0795 3.175,3.1115 1.17475,2.00025 1.17475,4.66725 z m -8.85825,-5.11175 q -1.68275,0 -2.82575,0.9525 -1.143,0.9525 -1.397,2.6035 h 8.41375 q -0.254,-1.61925 -1.397,-2.57175 -1.143,-0.98425 -2.794,-0.98425 z" />
        <path
           id="path891"
           style="font-style:normal;font-variant:normal;font-weight:bold;font-stretch:normal;font-size:31.75px;font-family:Montserrat;-inkscape-font-specification:'Montserrat Bold';fill:#3d405b;fill-opacity:1;stroke-width:0.264583"
           d="m 369.08405,81.959513 h 4.953 v 23.558497 h -4.953 z" />
        <path
           id="path893"
           style="font-style:normal;font-variant:normal;font-weight:bold;font-stretch:normal;font-size:31.75px;font-family:Montserrat;-inkscape-font-specification:'Montserrat Bold';fill:#3d405b;fill-opacity:1;stroke-width:0.264583"
           d="m 384.0631,88.817513 h 4.3815 v 3.81 h -4.2545 v 12.890497 h -4.953 V 92.627513 h -2.63525 v -3.81 h 2.63525 v -0.762 q 0,-2.921 1.7145,-4.6355 1.74625,-1.7145 4.8895,-1.7145 1.11125,0 2.0955,0.254 1.016,0.22225 1.68275,0.66675 l -1.30175,3.58775 q -0.85725,-0.60325 -2.00025,-0.60325 -2.25425,0 -2.25425,2.4765 z" />
      </g>
      <g
         style="font-style:normal;font-variant:normal;font-weight:normal;font-stretch:normal;font-size:14.1111px;line-height:1.25;font-family:Merriweather;-inkscape-font-specification:Merriweather;letter-spacing:2.38125px;stroke-width:0.264583"
         id="text915"
         aria-label="logo | website | app | ux/ui">
        <path
           id="path896"
           style="font-style:normal;font-variant:normal;font-weight:normal;font-stretch:normal;font-size:14.1111px;font-family:Merriweather;-inkscape-font-specification:Merriweather;fill:#e07a5f;fill-opacity:1;stroke-width:0.264583"
           d="m 143.10415,118.93848 -1.143,-0.15522 v -0.60678 l 2.27189,-0.26811 h 0.0282 l 0.31045,0.21167 v 10.54099 l 1.19944,0.11289 v 0.69144 h -3.81 v -0.69144 l 1.143,-0.127 z" />
        <path
           id="path898"
           style="font-style:normal;font-variant:normal;font-weight:normal;font-stretch:normal;font-size:14.1111px;font-family:Merriweather;-inkscape-font-specification:Merriweather;fill:#e07a5f;fill-opacity:1;stroke-width:0.264583"
           d="m 149.16818,125.52837 q 0,-1.27 0.52211,-2.20134 0.52211,-0.93133 1.36877,-1.41111 0.86078,-0.49388 1.83445,-0.49388 1.778,0 2.667,1.12888 0.90311,1.12889 0.90311,2.96333 0,1.28411 -0.52211,2.21545 -0.52212,0.93133 -1.38289,1.41111 -0.84667,0.47977 -1.82033,0.47977 -1.778,0 -2.68111,-1.12888 -0.889,-1.12889 -0.889,-2.96333 z m 3.65477,3.28788 q 0.97367,0 1.49578,-0.80433 0.52211,-0.80433 0.52211,-2.38478 0,-1.56633 -0.47978,-2.48355 -0.47978,-0.91722 -1.53811,-0.91722 -0.97366,0 -1.50989,0.80433 -0.52211,0.80433 -0.52211,2.38478 0,1.56633 0.49389,2.48355 0.49389,0.91722 1.53811,0.91722 z" />
        <path
           id="path900"
           style="font-style:normal;font-variant:normal;font-weight:normal;font-stretch:normal;font-size:14.1111px;font-family:Merriweather;-inkscape-font-specification:Merriweather;fill:#e07a5f;fill-opacity:1;stroke-width:0.264583"
           d="m 163.49337,133.27536 q -1.80622,0 -2.62466,-0.57856 -0.80434,-0.56444 -0.80434,-1.56633 0,-0.62089 0.381,-1.143 0.39511,-0.52211 0.93134,-0.79022 -0.64911,-0.36689 -0.64911,-1.18533 0,-0.508 0.29633,-0.95956 0.29633,-0.45155 0.77611,-0.69144 -0.70556,-0.31044 -1.08656,-0.889 -0.36688,-0.57855 -0.36688,-1.36878 0,-0.81844 0.45155,-1.42522 0.46567,-0.60677 1.21356,-0.93133 0.762,-0.32455 1.60866,-0.32455 1.42522,0 2.22956,0.59266 0.21166,-0.21166 0.64911,-0.40922 0.43744,-0.19756 0.93133,-0.19756 h 0.47978 v 1.24178 h -1.55223 q 0.33867,0.52211 0.33867,1.21356 0,0.83255 -0.42333,1.48166 -0.40922,0.635 -1.15711,0.98778 -0.73378,0.35278 -1.66511,0.35278 -0.60678,0 -1.08656,-0.127 -0.19755,0.19755 -0.32455,0.43744 -0.127,0.23989 -0.127,0.46567 0,0.508 0.33866,0.70555 0.33867,0.18345 1.21356,0.18345 h 1.59455 q 1.36878,0 2.032,0.52211 0.66322,0.52211 0.66322,1.48166 0,0.80433 -0.57855,1.46756 -0.57856,0.67733 -1.56633,1.05833 -0.97367,0.39511 -2.11667,0.39511 z m 0.0988,-7.36599 q 1.60866,0 1.60866,-1.905 0,-0.94545 -0.42333,-1.38289 -0.40922,-0.45156 -1.24178,-0.45156 -0.77611,0 -1.22766,0.43745 -0.45156,0.42333 -0.45156,1.36877 0,0.889 0.42334,1.41111 0.43744,0.52212 1.31233,0.52212 z m 0.0282,6.54755 q 0.69145,0 1.29822,-0.21167 0.62089,-0.19756 1.00189,-0.60678 0.381,-0.39511 0.381,-0.93133 0,-0.635 -0.33867,-0.93133 -0.33866,-0.28223 -1.31233,-0.28223 h -1.66511 q -0.56444,0 -0.889,-0.0705 -0.57855,0.635 -0.57855,1.42522 0,0.79022 0.47977,1.19944 0.47978,0.40923 1.62278,0.40923 z" />
        <path
           id="path902"
           style="font-style:normal;font-variant:normal;font-weight:normal;font-stretch:normal;font-size:14.1111px;font-family:Merriweather;-inkscape-font-specification:Merriweather;fill:#e07a5f;fill-opacity:1;stroke-width:0.264583"
           d="m 171.07346,125.52837 q 0,-1.27 0.52211,-2.20134 0.52211,-0.93133 1.36878,-1.41111 0.86077,-0.49388 1.83444,-0.49388 1.778,0 2.667,1.12888 0.90311,1.12889 0.90311,2.96333 0,1.28411 -0.52211,2.21545 -0.52211,0.93133 -1.38289,1.41111 -0.84667,0.47977 -1.82033,0.47977 -1.778,0 -2.68111,-1.12888 -0.889,-1.12889 -0.889,-2.96333 z m 3.65477,3.28788 q 0.97367,0 1.49578,-0.80433 0.52211,-0.80433 0.52211,-2.38478 0,-1.56633 -0.47978,-2.48355 -0.47977,-0.91722 -1.53811,-0.91722 -0.97366,0 -1.50988,0.80433 -0.52211,0.80433 -0.52211,2.38478 0,1.56633 0.49388,2.48355 0.49389,0.91722 1.53811,0.91722 z" />
        <path
           id="path904"
           style="font-style:normal;font-variant:normal;font-weight:normal;font-stretch:normal;font-size:14.1111px;font-family:Merriweather;-inkscape-font-specification:Merriweather;fill:#e07a5f;fill-opacity:1;stroke-width:0.264583"
           d="m 190.6632,130.74947 h -1.15711 v -13.54665 h 1.15711 z" />
        <path
           id="path906"
           style="font-style:normal;font-variant:normal;font-weight:normal;font-stretch:normal;font-size:14.1111px;font-family:Merriweather;-inkscape-font-specification:Merriweather;fill:#e07a5f;fill-opacity:1;stroke-width:0.264583"
           d="m 201.05889,121.6337 h 3.28789 v 0.66322 l -1.07245,0.16934 1.17123,4.14866 0.40922,1.79211 0.40922,-1.80622 1.35466,-4.96711 h 1.38289 l 1.397,4.96711 0.40922,1.82033 0.45156,-1.80622 1.143,-4.13455 -1.07245,-0.18345 v -0.66322 h 2.86456 v 0.66322 l -0.74789,0.18345 -2.18722,7.09788 h -1.32644 l -1.49578,-4.98122 -0.36689,-1.74977 -0.29633,1.74977 -1.42522,4.98122 h -1.31234 l -2.25777,-7.11199 -0.71967,-0.16934 z" />
        <path
           id="path908"
           style="font-style:normal;font-variant:normal;font-weight:normal;font-stretch:normal;font-size:14.1111px;font-family:Merriweather;-inkscape-font-specification:Merriweather;fill:#e07a5f;fill-opacity:1;stroke-width:0.264583"
           d="m 219.49637,129.62058 q -1.70745,0 -2.61056,-1.11477 -0.889,-1.11478 -0.889,-2.97744 0,-1.22767 0.46567,-2.159 0.46567,-0.93134 1.29822,-1.43933 0.84667,-0.508 1.91911,-0.508 1.31233,0 2.032,0.73377 0.73378,0.71967 0.77611,2.07433 0,0.86078 -0.0988,1.31234 h -4.85422 q 0.0282,1.397 0.64912,2.25777 0.62088,0.84667 1.76388,0.84667 0.56445,0 1.17122,-0.19756 0.62089,-0.21166 0.95956,-0.49389 l 0.26811,0.62089 q -0.40922,0.42334 -1.21355,0.73378 -0.80434,0.31044 -1.63689,0.31044 z m 1.43933,-4.82599 q 0.0423,-0.29633 0.0423,-0.60678 -0.0141,-0.91722 -0.39511,-1.43933 -0.36689,-0.53622 -1.17122,-0.53622 -0.81844,0 -1.31233,0.59266 -0.47978,0.59267 -0.55033,1.98967 z" />
        <path
           id="path910"
           style="font-style:normal;font-variant:normal;font-weight:normal;font-stretch:normal;font-size:14.1111px;font-family:Merriweather;-inkscape-font-specification:Merriweather;fill:#e07a5f;fill-opacity:1;stroke-width:0.264583"
           d="m 225.43252,118.17648 2.25777,-0.26811 h 0.0282 l 0.32455,0.21167 v 4.24744 q 0.42333,-0.40922 1.00189,-0.67733 0.59266,-0.26811 1.31233,-0.26811 0.84667,0 1.53811,0.40922 0.70556,0.40922 1.11478,1.27 0.42333,0.86077 0.42333,2.17311 0,1.21355 -0.508,2.20133 -0.49389,0.98777 -1.42522,1.56633 -0.93133,0.57855 -2.159,0.57855 -0.97366,0 -1.778,-0.18344 -0.80433,-0.19756 -0.97366,-0.35278 v -10.15999 l -1.15711,-0.15522 z m 4.34622,4.24744 q -0.53623,0 -1.00189,0.254 -0.45156,0.23989 -0.73378,0.55034 v 5.19288 q 0.0847,0.19756 0.47978,0.32456 0.40922,0.11289 0.91722,0.11289 1.08655,0 1.74978,-0.87489 0.66322,-0.87489 0.66322,-2.55411 0,-1.50989 -0.57856,-2.25778 -0.57855,-0.74789 -1.49577,-0.74789 z" />
        <path
           id="path912"
           style="font-style:normal;font-variant:normal;font-weight:normal;font-stretch:normal;font-size:14.1111px;font-family:Merriweather;-inkscape-font-specification:Merriweather;fill:#e07a5f;fill-opacity:1;stroke-width:0.264583"
           d="m 238.36071,128.33647 q 0.14111,0.21167 0.59266,0.381 0.46567,0.16934 0.97367,0.16934 0.80433,0 1.18533,-0.31045 0.381,-0.31044 0.381,-0.86077 0,-0.381 -0.23989,-0.66323 -0.23989,-0.28222 -0.67733,-0.49388 -0.42333,-0.22578 -1.22767,-0.53623 -1.08655,-0.40922 -1.59455,-0.97366 -0.49389,-0.57856 -0.49389,-1.50989 0,-0.62089 0.36689,-1.08655 0.381,-0.46567 1.03011,-0.71967 0.66322,-0.26811 1.46756,-0.26811 0.64911,0 1.12888,0.0988 0.49389,0.0988 0.79022,0.19755 0.29634,0.0988 0.39512,0.127 v 1.74978 h -0.86078 l -0.28222,-1.04422 q -0.0847,-0.16934 -0.45156,-0.28223 -0.36689,-0.127 -0.81844,-0.127 -0.635,0 -1.03011,0.28223 -0.381,0.28222 -0.381,0.762 0,0.42333 0.19755,0.70555 0.21167,0.26811 0.52211,0.43745 0.31045,0.16933 0.84667,0.39511 l 0.28222,0.11288 q 0.79022,0.31045 1.28411,0.59267 0.49389,0.28222 0.81845,0.74789 0.33866,0.45155 0.33866,1.11478 0,1.04422 -0.81844,1.66511 -0.80433,0.62088 -2.21544,0.62088 -0.69145,0 -1.45345,-0.18344 -0.74789,-0.19756 -1.22766,-0.39511 v -1.80622 h 0.91722 z" />
        <path
           id="path914"
           style="font-style:normal;font-variant:normal;font-weight:normal;font-stretch:normal;font-size:14.1111px;font-family:Merriweather;-inkscape-font-specification:Merriweather;fill:#e07a5f;fill-opacity:1;stroke-width:0.264583"
           d="m 248.23297,120.22259 q -0.45155,0 -0.67733,-0.254 -0.22578,-0.254 -0.22578,-0.64911 0,-0.45155 0.26811,-0.74789 0.28222,-0.29633 0.762,-0.29633 0.47978,0 0.70556,0.254 0.22577,0.254 0.22577,0.64911 0,0.47978 -0.28222,0.762 -0.26811,0.28222 -0.762,0.28222 z m -0.56444,2.49767 -1.07245,-0.254 v -0.74789 l 2.18722,-0.26811 h 0.0282 l 0.32455,0.254 v 6.95677 l 1.12889,0.11289 v 0.69144 h -3.73944 v -0.69144 l 1.143,-0.127 z" />
        <path
           id="path916"
           style="font-style:normal;font-variant:normal;font-weight:normal;font-stretch:normal;font-size:14.1111px;font-family:Merriweather;-inkscape-font-specification:Merriweather;fill:#e07a5f;fill-opacity:1;stroke-width:0.264583"
           d="m 256.07499,129.60647 q -0.80433,0 -1.19944,-0.36689 -0.39511,-0.36688 -0.39511,-1.25588 v -5.41867 h -1.016 v -0.63499 q 0.0705,-0.0141 0.39511,-0.0988 0.32455,-0.0847 0.43744,-0.15522 0.22578,-0.127 0.35278,-0.508 0.11289,-0.26812 0.26811,-0.86078 0.15522,-0.59267 0.18344,-0.70556 h 0.83256 l 0.0282,2.032 h 2.35656 v 0.93133 h -2.35656 v 4.33211 q 0,0.80434 0.0423,1.12889 0.0564,0.32456 0.21167,0.42333 0.16933,0.0988 0.56445,0.0988 0.381,0 0.83255,-0.0988 0.46567,-0.0988 0.71967,-0.21166 l 0.21166,0.635 q -0.33866,0.254 -1.10066,0.49388 -0.74789,0.23989 -1.36878,0.23989 z" />
        <path
           id="path918"
           style="font-style:normal;font-variant:normal;font-weight:normal;font-stretch:normal;font-size:14.1111px;font-family:Merriweather;-inkscape-font-specification:Merriweather;fill:#e07a5f;fill-opacity:1;stroke-width:0.264583"
           d="m 265.24721,129.62058 q -1.70744,0 -2.61055,-1.11477 -0.889,-1.11478 -0.889,-2.97744 0,-1.22767 0.46567,-2.159 0.46566,-0.93134 1.29822,-1.43933 0.84667,-0.508 1.91911,-0.508 1.31233,0 2.032,0.73377 0.73377,0.71967 0.77611,2.07433 0,0.86078 -0.0988,1.31234 h -4.85422 q 0.0282,1.397 0.64911,2.25777 0.62089,0.84667 1.76389,0.84667 0.56444,0 1.17122,-0.19756 0.62089,-0.21166 0.95956,-0.49389 l 0.26811,0.62089 q -0.40923,0.42334 -1.21356,0.73378 -0.80433,0.31044 -1.63689,0.31044 z m 1.43934,-4.82599 q 0.0423,-0.29633 0.0423,-0.60678 -0.0141,-0.91722 -0.39511,-1.43933 -0.36689,-0.53622 -1.17122,-0.53622 -0.81845,0 -1.31233,0.59266 -0.47978,0.59267 -0.55034,1.98967 z" />
        <path
           id="path920"
           style="font-style:normal;font-variant:normal;font-weight:normal;font-stretch:normal;font-size:14.1111px;font-family:Merriweather;-inkscape-font-specification:Merriweather;fill:#e07a5f;fill-opacity:1;stroke-width:0.264583"
           d="m 280.48367,130.74947 h -1.15711 v -13.54665 h 1.15711 z" />
        <path
           id="path922"
           style="font-style:normal;font-variant:normal;font-weight:normal;font-stretch:normal;font-size:14.1111px;font-family:Merriweather;-inkscape-font-specification:Merriweather;fill:#e07a5f;fill-opacity:1;stroke-width:0.264583"
           d="m 291.61315,127.3487 q 0,-1.32645 1.32644,-1.94733 1.32645,-0.635 3.35844,-0.67734 v -0.39511 q 0,-0.66322 -0.14111,-1.04422 -0.14111,-0.381 -0.49389,-0.55033 -0.33866,-0.18345 -0.97366,-0.18345 -0.71967,0 -1.29822,0.21167 -0.56445,0.19756 -1.12889,0.49389 l -0.35278,-0.73378 q 0.18345,-0.15522 0.67733,-0.40922 0.49389,-0.254 1.143,-0.45156 0.64911,-0.19755 1.29823,-0.19755 1.00188,0 1.58044,0.28222 0.59266,0.26811 0.84666,0.87489 0.254,0.60678 0.254,1.62278 v 4.52966 h 0.83256 v 0.62089 q -0.28222,0.0705 -0.71967,0.14111 -0.42333,0.0705 -0.74789,0.0705 -0.39511,0 -0.53622,-0.127 -0.14111,-0.11289 -0.14111,-0.52211 v -0.46566 q -0.42333,0.42333 -1.04422,0.77611 -0.60678,0.35277 -1.38289,0.35277 -1.016,0 -1.69333,-0.57855 -0.66322,-0.59267 -0.66322,-1.69333 z m 2.96333,1.31233 q 0.36689,0 0.84667,-0.22578 0.47977,-0.22578 0.87488,-0.53622 v -2.42711 q -1.53811,0 -2.32833,0.47978 -0.77611,0.46566 -0.77611,1.22766 0,0.762 0.36689,1.12889 0.381,0.35278 1.016,0.35278 z" />
        <path
           id="path924"
           style="font-style:normal;font-variant:normal;font-weight:normal;font-stretch:normal;font-size:14.1111px;font-family:Merriweather;-inkscape-font-specification:Merriweather;fill:#e07a5f;fill-opacity:1;stroke-width:0.264583"
           d="m 309.53844,125.27437 q 0,1.19944 -0.49389,2.20133 -0.49389,0.98777 -1.41111,1.56633 -0.91722,0.57855 -2.14489,0.57855 -0.33866,0 -0.73378,-0.0564 -0.39511,-0.0564 -0.63499,-0.14111 l 0.0423,1.18533 v 1.42522 l 1.46755,0.15522 v 0.69145 h -3.93699 v -0.69145 l 1.016,-0.15522 v -9.31332 l -1.03012,-0.254 v -0.762 l 2.00378,-0.254 h 0.0282 l 0.29634,0.254 v 0.83255 q 0.42333,-0.46566 1.04422,-0.79022 0.635,-0.32455 1.41111,-0.32455 0.83255,0 1.524,0.40922 0.70555,0.40922 1.12888,1.27 0.42334,0.86077 0.42334,2.17311 z m -3.65478,-2.86456 q -0.53622,0 -1.00189,0.22578 -0.46566,0.22578 -0.71966,0.49389 v 5.31988 q 0.0988,0.16934 0.49389,0.31045 0.40922,0.127 0.889,0.127 1.08655,0 1.74977,-0.86078 0.67734,-0.86078 0.67734,-2.59644 0,-1.524 -0.59267,-2.27189 -0.57856,-0.74789 -1.49578,-0.74789 z" />
        <path
           id="path926"
           style="font-style:normal;font-variant:normal;font-weight:normal;font-stretch:normal;font-size:14.1111px;font-family:Merriweather;-inkscape-font-specification:Merriweather;fill:#e07a5f;fill-opacity:1;stroke-width:0.264583"
           d="m 320.79425,125.27437 q 0,1.19944 -0.49389,2.20133 -0.49389,0.98777 -1.41111,1.56633 -0.91722,0.57855 -2.14488,0.57855 -0.33867,0 -0.73378,-0.0564 -0.39511,-0.0564 -0.635,-0.14111 l 0.0423,1.18533 v 1.42522 l 1.46756,0.15522 v 0.69145 h -3.937 v -0.69145 l 1.016,-0.15522 v -9.31332 l -1.03011,-0.254 v -0.762 l 2.00377,-0.254 h 0.0282 l 0.29633,0.254 v 0.83255 q 0.42333,-0.46566 1.04422,-0.79022 0.635,-0.32455 1.41111,-0.32455 0.83256,0 1.524,0.40922 0.70556,0.40922 1.12889,1.27 0.42333,0.86077 0.42333,2.17311 z m -3.65477,-2.86456 q -0.53623,0 -1.00189,0.22578 -0.46567,0.22578 -0.71967,0.49389 v 5.31988 q 0.0988,0.16934 0.49389,0.31045 0.40922,0.127 0.889,0.127 1.08655,0 1.74978,-0.86078 0.67733,-0.86078 0.67733,-2.59644 0,-1.524 -0.59267,-2.27189 -0.57855,-0.74789 -1.49577,-0.74789 z" />
        <path
           id="path928"
           style="font-style:normal;font-variant:normal;font-weight:normal;font-stretch:normal;font-size:14.1111px;font-family:Merriweather;-inkscape-font-specification:Merriweather;fill:#e07a5f;fill-opacity:1;stroke-width:0.264583"
           d="m 333.05305,130.74947 h -1.15711 v -13.54665 h 1.15711 z" />
        <path
           id="path930"
           style="font-style:normal;font-variant:normal;font-weight:normal;font-stretch:normal;font-size:14.1111px;font-family:Merriweather;-inkscape-font-specification:Merriweather;fill:#e07a5f;fill-opacity:1;stroke-width:0.264583"
           d="m 350.60307,129.59236 q -0.39511,0 -0.59267,-0.15522 -0.18344,-0.15522 -0.18344,-0.508 v -0.47978 q -0.46567,0.46567 -1.17123,0.81845 -0.69144,0.35277 -1.39699,0.35277 -1.31234,0 -1.86267,-0.70555 -0.55033,-0.70556 -0.55033,-2.32833 v -4.09222 l -0.79022,-0.22578 v -0.62089 l 1.97555,-0.18344 h 0.0141 l 0.26811,0.16933 v 4.84011 q 0,0.81844 0.11289,1.28411 0.127,0.45155 0.42333,0.67733 0.31045,0.21167 0.889,0.21167 0.56445,0 1.05834,-0.23989 0.49388,-0.23989 0.86077,-0.56444 v -5.34811 l -1.016,-0.22578 v -0.62089 l 2.14489,-0.18344 h 0.0141 l 0.32456,0.16933 v 7.112 h 0.84666 l -0.0141,0.635 q -0.39511,0.0988 -0.69144,0.15522 -0.28222,0.0564 -0.66322,0.0564 z" />
        <path
           id="path932"
           style="font-style:normal;font-variant:normal;font-weight:normal;font-stretch:normal;font-size:14.1111px;font-family:Merriweather;-inkscape-font-specification:Merriweather;fill:#e07a5f;fill-opacity:1;stroke-width:0.264583"
           d="m 358.30155,125.55659 -2.38477,-3.09033 -0.79022,-0.16934 v -0.66322 h 3.58421 v 0.66322 l -0.98777,0.16934 1.28411,1.82033 0.39511,0.60678 0.381,-0.60678 1.34055,-1.82033 -1.03011,-0.16934 v -0.66322 h 2.97744 v 0.66322 l -0.84666,0.16934 -2.34244,2.92099 2.49766,3.27378 0.81844,0.127 v 0.67733 h -3.62655 v -0.67733 l 0.93133,-0.14111 -1.28411,-1.905 -0.42333,-0.635 -0.381,0.62089 -1.35466,1.91911 1.17122,0.14111 v 0.67733 h -3.28789 v -0.67733 l 0.94544,-0.14111 z" />
        <path
           id="path934"
           style="font-style:normal;font-variant:normal;font-weight:normal;font-stretch:normal;font-size:14.1111px;font-family:Merriweather;-inkscape-font-specification:Merriweather;fill:#e07a5f;fill-opacity:1;stroke-width:0.264583"
           d="m 367.36728,131.96303 h -1.21356 l 3.85233,-13.51844 h 1.19944 z" />
        <path
           id="path936"
           style="font-style:normal;font-variant:normal;font-weight:normal;font-stretch:normal;font-size:14.1111px;font-family:Merriweather;-inkscape-font-specification:Merriweather;fill:#e07a5f;fill-opacity:1;stroke-width:0.264583"
           d="m 381.17345,129.59236 q -0.39511,0 -0.59266,-0.15522 -0.18345,-0.15522 -0.18345,-0.508 v -0.47978 q -0.46566,0.46567 -1.17122,0.81845 -0.69144,0.35277 -1.397,0.35277 -1.31233,0 -1.86266,-0.70555 -0.55033,-0.70556 -0.55033,-2.32833 v -4.09222 l -0.79023,-0.22578 v -0.62089 l 1.97556,-0.18344 h 0.0141 l 0.26811,0.16933 v 4.84011 q 0,0.81844 0.11289,1.28411 0.127,0.45155 0.42333,0.67733 0.31045,0.21167 0.889,0.21167 0.56445,0 1.05833,-0.23989 0.49389,-0.23989 0.86078,-0.56444 v -5.34811 l -1.016,-0.22578 v -0.62089 l 2.14489,-0.18344 h 0.0141 l 0.32456,0.16933 v 7.112 h 0.84666 l -0.0141,0.635 q -0.39511,0.0988 -0.69144,0.15522 -0.28223,0.0564 -0.66323,0.0564 z" />
        <path
           id="path938"
           style="font-style:normal;font-variant:normal;font-weight:normal;font-stretch:normal;font-size:14.1111px;font-family:Merriweather;-inkscape-font-specification:Merriweather;fill:#e07a5f;fill-opacity:1;stroke-width:0.264583"
           d="m 387.72894,120.22259 q -0.45155,0 -0.67733,-0.254 -0.22578,-0.254 -0.22578,-0.64911 0,-0.45155 0.26811,-0.74789 0.28222,-0.29633 0.762,-0.29633 0.47978,0 0.70556,0.254 0.22577,0.254 0.22577,0.64911 0,0.47978 -0.28222,0.762 -0.26811,0.28222 -0.762,0.28222 z m -0.56444,2.49767 -1.07245,-0.254 v -0.74789 l 2.18723,-0.26811 h 0.0282 l 0.32455,0.254 v 6.95677 l 1.12889,0.11289 v 0.69144 h -3.73944 v -0.69144 l 1.143,-0.127 z" />
      </g>
    </g>
  </g>
</svg>
